<svg width="24" height="24" viewBox="0 0 24 24" fill="none" xmlns="http://www.w3.org/2000/svg">
<path d="M12.3663 9.74445C10.646 9.74445 9.2421 11.1484 9.2421 12.8687C9.2421 14.589 10.646 15.9929 12.3663 15.9929C14.0866 15.9929 15.4905 14.589 15.4905 12.8687C15.4905 11.1484 14.0866 9.74445 12.3663 9.74445ZM21.7366 12.8687C21.7366 11.5749 21.7484 10.2929 21.6757 9.00148C21.603 7.50148 21.2609 6.17023 20.164 5.07335C19.0648 3.97413 17.7359 3.63429 16.2359 3.56163C14.9421 3.48898 13.6601 3.5007 12.3687 3.5007C11.0749 3.5007 9.79288 3.48898 8.50148 3.56163C7.00148 3.63429 5.67023 3.97648 4.57335 5.07335C3.47413 6.17257 3.13429 7.50148 3.06163 9.00148C2.98898 10.2952 3.0007 11.5773 3.0007 12.8687C3.0007 14.1601 2.98898 15.4444 3.06163 16.7359C3.13429 18.2359 3.47648 19.5671 4.57335 20.664C5.67257 21.7632 7.00148 22.103 8.50148 22.1757C9.79523 22.2484 11.0773 22.2366 12.3687 22.2366C13.6624 22.2366 14.9444 22.2484 16.2359 22.1757C17.7359 22.103 19.0671 21.7609 20.164 20.664C21.2632 19.5648 21.603 18.2359 21.6757 16.7359C21.7507 15.4444 21.7366 14.1624 21.7366 12.8687ZM12.3663 17.6757C9.70617 17.6757 7.55929 15.5288 7.55929 12.8687C7.55929 10.2085 9.70617 8.06163 12.3663 8.06163C15.0265 8.06163 17.1734 10.2085 17.1734 12.8687C17.1734 15.5288 15.0265 17.6757 12.3663 17.6757ZM17.3702 8.98742C16.7491 8.98742 16.2476 8.48585 16.2476 7.86476C16.2476 7.24367 16.7491 6.7421 17.3702 6.7421C17.9913 6.7421 18.4929 7.24367 18.4929 7.86476C18.4931 8.01224 18.4642 8.15831 18.4078 8.2946C18.3515 8.43089 18.2688 8.55473 18.1645 8.65901C18.0602 8.7633 17.9364 8.84598 17.8001 8.90234C17.6638 8.95869 17.5177 8.9876 17.3702 8.98742Z" fill="black" fill-opacity="0.32"/>
</svg>
