<svg width="24" height="24" viewBox="0 0 24 24" fill="none" xmlns="http://www.w3.org/2000/svg">
<path fill-rule="evenodd" clip-rule="evenodd" d="M14.5932 12.2584L14.5822 12.2604L14.5112 12.2954L14.4912 12.2994L14.4772 12.2954L14.4062 12.2604C14.3955 12.2571 14.3875 12.2588 14.3822 12.2654L14.3782 12.2754L14.3612 12.7034L14.3662 12.7234L14.3762 12.7364L14.4802 12.8104L14.4952 12.8144L14.5072 12.8104L14.6112 12.7364L14.6232 12.7204L14.6272 12.7034L14.6102 12.2764C14.6075 12.2658 14.6018 12.2598 14.5932 12.2584ZM14.8582 12.1454L14.8452 12.1474L14.6602 12.2404L14.6502 12.2504L14.6472 12.2614L14.6652 12.6914L14.6702 12.7034L14.6782 12.7104L14.8792 12.8034C14.8918 12.8068 14.9015 12.8041 14.9082 12.7954L14.9122 12.7814L14.8782 12.1674C14.8748 12.1554 14.8682 12.1481 14.8582 12.1454ZM14.1432 12.1474C14.1388 12.1448 14.1335 12.1439 14.1285 12.145C14.1234 12.1461 14.119 12.1491 14.1162 12.1534L14.1102 12.1674L14.0762 12.7814C14.0768 12.7934 14.0825 12.8014 14.0932 12.8054L14.1082 12.8034L14.3092 12.7104L14.3192 12.7024L14.3232 12.6914L14.3402 12.2614L14.3372 12.2494L14.3272 12.2394L14.1432 12.1474Z" fill="black" fill-opacity="0.32"/>
<path fill-rule="evenodd" clip-rule="evenodd" d="M20.0169 3.61747C20.264 3.51346 20.5345 3.47758 20.8002 3.51358C21.0659 3.54958 21.317 3.65613 21.5276 3.82215C21.7381 3.98817 21.9003 4.20758 21.9973 4.45755C22.0942 4.70752 22.1224 4.97891 22.0789 5.24347L19.8109 19.0005C19.5909 20.3275 18.1349 21.0885 16.9179 20.4275C15.8999 19.8745 14.3879 19.0225 13.0279 18.1335C12.3479 17.6885 10.2649 16.2635 10.5209 15.2495C10.7409 14.3825 14.2409 11.1245 16.2409 9.18747C17.0259 8.42647 16.6679 7.98747 15.7409 8.68747C13.4389 10.4255 9.74289 13.0685 8.52089 13.8125C7.44289 14.4685 6.88089 14.5805 6.20889 14.4685C4.98289 14.2645 3.84589 13.9485 2.91789 13.5635C1.66389 13.0435 1.72489 11.3195 2.91689 10.8175L20.0169 3.61747Z" fill="black" fill-opacity="0.32"/>
</svg>
