<svg width="24" height="24" viewBox="0 0 24 24" fill="none" xmlns="http://www.w3.org/2000/svg">
<path d="M22.385 6.46745C21.6215 6.80492 20.8119 7.02669 19.983 7.12545C20.8558 6.60224 21.5089 5.77997 21.821 4.81145C21.001 5.29945 20.102 5.64145 19.166 5.82645C18.5366 5.15303 17.7024 4.70641 16.793 4.55603C15.8836 4.40566 14.9499 4.55994 14.1373 4.9949C13.3246 5.42987 12.6784 6.12113 12.2991 6.96124C11.9198 7.80135 11.8287 8.74323 12.04 9.64045C10.3769 9.55749 8.74983 9.12553 7.26457 8.37265C5.77931 7.61977 4.46907 6.56281 3.419 5.27045C3.04738 5.90894 2.85205 6.63469 2.853 7.37345C2.853 8.82345 3.592 10.1045 4.713 10.8545C4.04919 10.8323 3.4001 10.6531 2.819 10.3315V10.3825C2.81897 11.3483 3.15303 12.2845 3.76453 13.0321C4.37603 13.7798 5.22731 14.2929 6.174 14.4845C5.55767 14.6518 4.91128 14.6765 4.284 14.5564C4.55092 15.3878 5.07121 16.1149 5.772 16.6358C6.47278 17.1568 7.31896 17.4455 8.192 17.4614C7.32419 18.1426 6.33071 18.6462 5.26828 18.9433C4.20584 19.2405 3.09528 19.3255 2 19.1934C3.9117 20.4229 6.1371 21.0756 8.41 21.0734C16.104 21.0734 20.31 14.7005 20.31 9.17345C20.31 8.99278 20.306 8.81245 20.298 8.63245C21.1164 8.04076 21.8227 7.30797 22.384 6.46845" fill="black" fill-opacity="0.32"/>
</svg>
